<svg xmlns="http://www.w3.org/2000/svg" fill="none" viewBox="0 0 1254 1254"><path fill="#0fb6b5" fill-rule="evenodd" d="M501 1032c-1 3.42-47.58 8.75 0 10.5s237.75.17 285.5 0 1.17 1.42 1-1-.5-9.92-2-13.5-4.67-6.17-7-8 36.75-2.5-7-3-211.42-.83-255.5 0-6.5 2.5-9 5-5 6.58-6 10m37-28c-.17.5-.58 2.08 0 2.5s2.83-.17 3.5 0-4.5.83.5 1 24.5.17 29.5 0-.33-.83.5-1 3.67-.17 4.5 0-10.67.83.5 1 55.33.17 66.5 0 0-.83.5-1 2-.17 2.5 0-5 .83.5 1 27 .17 32.5 0-1.17-.83.5-1 7.83-.17 9.5 0-7 .83.5 1 37 .17 44.5 0-2-.83.5-1 12.08 1.08 14.5 0 .5-4.25 0-6.5-1.67-5-3-7q-2-3-5-5c-2-1.33 24.42-2.5-7-3s-150.42-.33-181.5 0-3.17.83-5 2-4.5 3.17-6 5a16 16 0 0 0-3 6c-.5 1.92.17 4.5 0 5.5s-.83 0-1 .5m37-39c-.33 2.17-22.92 8.75 0 10.5s114.42.17 137.5 0 .83.25 1-1 .17-5.33 0-6.5-.83 0-1-.5.17-2 0-2.5-.67.17-1-.5.17-1.92-1-3.5-4.75-5-6-6-.83.33-1.5 0-1.67-1.67-2.5-2-2 .17-2.5 0 17.67-.83-.5-1-90.33-.17-108.5 0 0 .83-.5 1-2-.17-2.5 0-.17.83-.5 1-1-.33-1.5 0-1 1.67-1.5 2-.92-.33-1.5 0a8 8 0 0 0-2 2c-.33.58.33 1 0 1.5s-1.67 1-2 1.5.33.83 0 1.5-1.67.33-2 2.5m92-265c-2.92 40.08-3.25 200.42 0 240.5s16.25 16.92 19.5 0 .17-84.5 0-101.5-.67 22.67-1-.5 2.08-115.42-1-138.5-14.58-40.08-17.5 0m-32 0c-2.58 40.08-2.75 200.42 0 240.5s13.75 39.92 16.5 0 .17-199.42 0-239.5 1.75-.83-1-1-12.92-40.08-15.5 0m-32 0c-2.92.17-.67-25.25-1 1s-.67 130.33-1 156.5-.67-13.17-1 .5-1 67.75-1 81.5-2.25.83 1 1 15.25.17 18.5 0 .83 39.08 1-1 2.75-199.58 0-239.5-13.58-.17-16.5 0m-17-25c-.33 1.5-.17 5.33 0 6.5s.67-.17 1 .5.58 2.92 1 3.5 1-.33 1.5 0 1 1.67 1.5 2 1.17-.17 1.5 0-16.5.83.5 1 84.5.17 101.5 0 .17-.83.5-1 .58.67 1.5 0 3.33-2.92 4-4-.17-2 0-2.5.83.33 1-.5.17-3.67 0-4.5-.83 0-1-.5.33-1.83 0-2.5-1.67-1-2-1.5.25-1.25 0-1.5-1 .33-1.5 0-.83-1.67-1.5-2-2 .17-2.5 0 15.83-.83-.5-1-81.17-.17-97.5 0 0 .83-.5 1-2-.17-2.5 0-.17.83-.5 1-.92-.33-1.5 0a8 8 0 0 0-2 2c-.33.58.33.83 0 1.5s-1.67 1-2 2.5M230 892c5.5 9.33 25.33 42.42 45 55.5s50.58 21 73 23 46.08-6.17 61.5-11 21.5-10 31-18 20.5-21.75 26-30 8-15.33 7-19.5 5.42 33.08-13-5.5-108.92-182.67-97.5-226 130.42-29.33 166-34 35.67.83 47.5 6 5 20.83 23.5 25 69.33 4 87.5 0 9.5-18.83 21.5-24 14.5-11.58 50.5-7 154.25-8 165.5 34.5-79 182-98 220.5-18 1.67-16 10.5 13.33 30.08 28 42.5 39.08 26.5 60 32 44.75 5.5 65.5 1 44-15.83 59-28 27.83-36.83 31-45 6.67 34.5-12-4-88.67-185.33-100-227 25.33-16.17 32-23 7.67-10.92 8-18-1.67-18.58-6-24.5-13.92-10-20-11a20.3 20.3 0 0 0-16.5 5c-4.08 3.75-10.83 11.58-8 17.5s25.42 12.42 25 18 8.58 22.25-27.5 15.5-148.08-48.5-189-56-40.5 3.67-56.5 11-24.92 33.5-39.5 33-31.08-28.83-48-36-13.42-15-53.5-7-151.42 48.75-187 55-25.75-13.58-26.5-17.5 18.17-1.25 22-6 5.75-17.42 1-22.5-22.08-9-29.5-8-12.17 7.75-15 14-4.33 15.75-2 23.5 9.33 17.17 16 23 37.33-28.33 24 12-84.67 191.58-104 230-17.5-8.83-12 .5m709-212.5c.58-35.08 1.33-2.67 3 .5s4.67 13.33 7 18.5 5.83 10 7 12.5-4.5-7.67 0 2.5 22 47.17 27 58.5 1.83 6.83 3 9.5 3.33 5 4 6.5-7.33-14 0 2.5 36.75 79.75 44 96.5 14.5 3.17-.5 4-73.67 1.08-89.5 1-4.67 33.92-5.5-1.5-.08-175.92.5-211m-581-2c.58-35.58 1.83-1.5 3 .5s1.67 6.33 4 11.5 8.33 15.83 10 19.5-3.33-5 0 2.5 16.17 33.83 20 42.5-.17 2.33 3 9.5 12.83 26.33 16 33.5 1.67 6.5 3 9.5 3.17 4.33 5 8.5 4.17 12.33 6 16.5 3.83 5.83 5 8.5-.33 2.17 2 7.5 10 20 12 24.5-1.17-.33 0 2.5 5.92 11.58 7 14.5 15.58 2.58-.5 3-80.08 35.25-96-.5-.08-178.42.5-214m-8.5-2c.58 35.92 16.75 179.92.5 216s-81.58 1.25-98 .5-1.58-1.92-.5-5 5.83-10.83 7-13.5-1.67 1.17 0-2.5 8.33-15.83 10-19.5-1.5.83 0-2.5 6-10.83 9-17.5 6.5-17 9-22.5 5-8.33 6-10.5-7 13 0-2.5 34.33-73.5 42-90.5 2.33-7.83 4-11.5 4.67-7.5 6-10.5 1.17-6.17 2-7.5 2.42-36.42 3-.5m581-1c.58 36.08 16.92 180.92.5 217s-82.58.58-99-.5-.25-3.92.5-6 2.83-3.83 4-6.5 1.67-6.5 3-9.5 4.17-6.67 5-8.5-7.67 14.5 0-2.5 38.33-82.5 46-99.5-.83-.67 0-2.5 2.67-3.33 5-8.5 6.67-17.33 9-22.5 4.17-6.67 5-8.5-1.17 0 0-2.5 4-6 7-12.5 8.67-22 11-26.5 2.42-36.58 3-.5M640 464c-1.92.33-2.5.33-5 2s-8.33 6.42-10 8 .67.5 0 1.5-3.33 3.33-4 4.5.33 1.67 0 2.5-1.67 1.5-2 2.5.17 2.83 0 3.5-.83-1.33-1 .5-.17 8.67 0 10.5.67-.67 1 .5 0 4.5 1 6.5 4.17 4.33 5 5.5-.25 1.25 0 1.5.33-.75 1.5 0 4.75 2.17 5.5 4.5.5 7.83-1 9.5-5.33-.08-8 .5a31 31 0 0 0-8 3c-2 1.17-3 2.67-4 4s-1.67 1.75-2 4-.17 7.83 0 9.5.83 0 1 .5-1 1.08 0 2.5 4.25 4.83 6 6 3.5.58 4.5 1 1.25.5 1.5 1.5.17 3.67 0 4.5-.83-.17-1 .5.17 2.83 0 3.5-.83-.17-1 .5.17 2.83 0 3.5-.83-.17-1 .5.17 2.83 0 3.5-.33-1.83-1 .5-4.25 10.25-3 13.5 8.33 4.5 10.5 6 1.83 2.5 2.5 3-.5-1.75 1.5 0 8.42 8 10.5 10.5 1.25 3.75 2 4.5 1.75.75 2.5 0-.08-2 2-4.5 8.5-8.75 10.5-10.5.33.83 1.5 0 3.33-3.67 5.5-5 6.25-1.58 7.5-3 .17-4.5 0-5.5-.83.17-1-.5.17-2.83 0-3.5-.5 1.17-1-.5-1.17-6.83-2-9.5-2.5-4.5-3-6.5-.25-4.33 0-5.5.5-1.08 1.5-1.5 2.75.17 4.5-1 4.83-4.67 6-6 .83.25 1-2 1-8.42 0-11.5-4.33-5.5-6-7-1.58-1.5-4-2-8.5-.58-10.5-1-1.25.33-1.5-1.5-.33-7.83 0-9.5.5.58 2-.5 5.17-3.67 7-6 3.33-5.92 4-8-.17-3.67 0-4.5 1 1.33 1-.5-.17-7.25-1-10.5-1.5-5.67-4-9-8-8.67-11-11-4.75-2.5-7-3a17 17 0 0 0-6.5 0m346.5 13.5c-1-13.92-10.67-38-22-45.5s-41.83 12.67-46 .5 21.33-51.42 21-73.5-11.5-44.5-23-59-29.42-23.5-46-28-42.33 11.17-53.5 1-1.42-45.83-13.5-62-36.92-31.67-59-35-55.42 7.33-73.5 15-25.83 19.33-35 31-18.5 23.58-20 39 .92 41.08 11 53.5 37.08 19.17 49.5 21 18-4 25-10 14.83-17.25 17-26 0-18.92-4-26.5-20.17-14.58-20-19 14.25-8.5 21-7.5S730.92 249 735 260s11.08 36.83 5 52.5-27 34.08-41.5 41.5-31.92 5.5-45.5 3-25.58-7.42-36-18-24.08-27-26.5-45.5 16.92-53.58 12-65.5-28.25-7.67-41.5-6-27.5 8.83-38 16-18.33 15.83-25 27-13.08 25-15 40 12.17 41 3.5 50-37.17-4-55.5 4-39.92 34.67-54.5 44-19.92 11.17-33 12-28.92.17-45.5-7-47.5-39.25-54-36 7.33 37.92 15 55.5 17.83 34.67 31 50 31.5 31.5 48 42 33.25 17 51 21 46.42 12.75 55.5 3-6.75-43.33-1-61.5 21.67-37.58 35.5-47.5 33.92-12.17 47.5-12 24.42 2.5 34 13 24.33 35.08 23.5 50-18.42 34.67-28.5 39.5-32.83-4.75-32-10.5 31.5-15.58 37-24-.17-19.42-4-26.5-9.92-13.33-19-16-23.75-5.67-35.5 0-28.67 19.92-35 34-7.83 34.42-3 50.5 18.33 40 32 46 32.42-9.67 50-10 47.92 10.83 55.5 8-10.83-15.17-10-25 13.33-22.42 15-34-10.58-23.5-5-35.5 27.17-32.25 38.5-36.5 22 5.25 29.5 11 13.75 13.33 15.5 23.5-6.83 27.5-5 37.5 15 12.67 16 22.5-14.33 31.75-10 36.5 19.08-8 36-8 49.92 13.58 65.5 8 30.83-26.17 28-41.5-36.17-32.5-45-50.5-9.83-41.25-8-57.5 10.08-29.92 19-40 22-17.92 34.5-20.5 29.5-1.92 40.5 5 24 25.25 25.5 36.5-11.58 26.42-16.5 31-12.17 1.67-13-3.5 10-19.75 8-27.5-11.42-16.67-20-19-23.08.5-31.5 5-15.83 9.08-19 22-7.17 37.75 0 55.5 27.5 39.17 43 51 33.75 17 50 20 32.92 2.5 47.5-2 30.67-14.5 40-25 17-24.08 16-38m-704.5-56c.58-.42 2.5.17 3 .5s-.17 1.17 0 1.5.83 0 1 .5-.17 2 0 2.5.67-.17 1 .5.5 2.67 1 3.5 1.67 1 2 1.5-.17 1.17 0 1.5.83.17 1 .5-.17 1.17 0 1.5.67-.17 1 .5.5 2.67 1 3.5 1.67 1 2 1.5-.17 1.17 0 1.5.83 0 1 .5-.33 2 0 2.5 1.75-.08 2 .5 0 2.5-.5 3-2 .5-2.5 0-.17-2.5-.5-3-1.17.33-1.5 0 .08-1.25-.5-2-2.5-1.83-3-2.5.17-1.17 0-1.5-.83-.17-1-.5.17-1.17 0-1.5-.83-.17-1-.5.17-1.17 0-1.5-.83-.17-1-.5.17-1.17 0-1.5-.83-.17-1-.5.33-.83 0-1.5-1.67-1.67-2-2.5.33-1.67 0-2.5-1.75-1.58-2-2.5-.08-2.58.5-3" clip-rule="evenodd"/></svg>